<?xml version="1.0" standalone="no"?>
<!DOCTYPE svg PUBLIC "-//W3C//DTD SVG 20010904//EN"
 "http://www.w3.org/TR/2001/REC-SVG-20010904/DTD/svg10.dtd">
<svg version="1.0" xmlns="http://www.w3.org/2000/svg"
 width="1024.000000pt" height="1024.000000pt" viewBox="0 0 1024.000000 1024.000000"
 preserveAspectRatio="xMidYMid meet">

<g transform="translate(0.000000,1024.000000) scale(0.100000,-0.100000)"
fill="#000000" stroke="none">
<path d="M1634 8201 c-2 -2 -4 -42 -4 -88 l0 -83 3453 2 3452 3 3 87 3 86
-3451 -1 c-1899 -1 -3454 -4 -3456 -6z"/>
<path d="M1637 5247 l3 -2642 3445 -3 3445 -2 0 90 0 90 -312 2 -313 3 50 29
c28 16 82 47 120 69 342 197 584 568 691 1060 22 103 27 155 32 328 6 291 -14
452 -84 666 -50 153 -162 354 -232 416 -20 19 -20 19 34 98 30 44 65 101 78
127 61 121 121 347 147 556 25 202 -8 483 -81 691 -75 214 -181 384 -345 551
-107 109 -262 219 -390 278 -38 18 -81 38 -95 44 -20 9 55 11 338 9 l362 -3 0
93 0 93 -3447 0 -3448 0 2 -2643z m2123 2188 c0 -151 -2 -275 -4 -275 -2 0
-32 36 -66 81 -148 191 -368 364 -554 436 -22 9 -45 20 -50 25 -6 4 144 8 332
8 l342 0 0 -275z m1586 258 c-3 -10 -40 -155 -81 -323 -115 -457 -129 -510
-135 -510 -9 0 -51 144 -119 415 -33 132 -72 281 -86 330 -13 50 -25 93 -25
98 0 4 102 7 226 7 210 0 225 -1 220 -17z m-2576 -194 c454 -56 854 -463 927
-944 4 -22 7 -609 7 -1305 0 -1185 -1 -1270 -18 -1348 -52 -242 -159 -453
-305 -605 -151 -158 -293 -240 -511 -297 l-105 -28 -427 -1 -427 -2 -1 2264
c0 1245 3 2266 6 2270 12 11 761 8 854 -4z m1968 -199 c29 -113 82 -308 116
-435 35 -126 80 -300 101 -385 57 -239 168 -650 175 -650 10 0 60 184 174 641
93 371 208 810 254 974 l18 60 212 3 212 2 0 -112 c0 -62 2 -1083 3 -2268 l2
-2155 -99 -3 -99 -3 3 1543 c2 849 2 1572 1 1608 l-3 65 -18 -95 c-10 -52 -30
-147 -45 -210 -15 -63 -62 -272 -105 -465 -297 -1330 -355 -1580 -438 -1897
-42 -164 -72 -258 -79 -258 -7 0 -13 2 -13 4 0 3 -20 83 -44 178 -24 95 -72
292 -105 438 -56 246 -236 1024 -331 1430 -22 96 -68 294 -101 440 -32 146
-83 360 -112 475 l-52 210 -3 -1732 -2 -1733 -155 0 -155 0 0 2190 c-1 1205
-1 2224 -1 2265 0 41 0 77 1 80 0 3 143 4 317 3 l317 -3 54 -205z m1702 -2060
l0 -2270 -90 0 -90 0 0 2270 0 2270 90 0 90 0 0 -2270z m1038 2260 c343 -37
636 -230 823 -542 93 -155 133 -289 149 -506 21 -270 -7 -558 -69 -718 -58
-149 -159 -290 -247 -344 l-34 -22 81 -76 c150 -141 266 -342 318 -554 41
-164 46 -478 12 -705 -23 -156 -141 -456 -232 -590 -157 -233 -394 -387 -704
-459 -16 -4 -200 -9 -407 -11 l-378 -5 0 2271 0 2271 295 0 c163 0 339 -5 393
-10z m-2744 -3765 c32 -121 84 -321 116 -445 32 -124 66 -250 77 -280 l18 -55
180 0 179 0 9 45 c5 25 37 149 72 275 35 127 82 304 105 395 23 91 44 167 46
169 2 2 4 -235 4 -527 l0 -532 -437 0 -438 0 -1 596 c-1 327 2 592 6 587 4 -4
33 -107 64 -228z m-975 -948 c-3 -4 -149 -6 -325 -5 l-319 3 94 48 c180 92
299 187 412 329 43 54 91 119 106 145 l28 48 5 -280 c3 -154 2 -283 -1 -288z"/>
<path d="M2540 7260 c-36 -4 -129 -8 -207 -9 l-143 -1 0 -2066 0 -2066 283 5
c292 5 339 11 472 57 177 61 360 231 457 425 36 71 76 187 96 275 15 68 17
202 19 1350 1 718 -2 1308 -8 1352 -21 177 -103 343 -233 473 -91 91 -189 148
-316 185 -84 24 -301 35 -420 20z m270 -221 c30 -6 83 -24 118 -40 85 -38 215
-168 259 -260 67 -136 64 -61 61 -1517 l-3 -1317 -23 -65 c-54 -150 -100 -229
-186 -316 -68 -69 -97 -91 -167 -123 -109 -51 -223 -73 -364 -69 l-108 3 -2
35 c-2 19 0 60 2 91 l5 57 142 4 c185 6 235 24 323 114 62 64 90 118 115 224
8 30 12 465 15 1351 4 1151 2 1314 -11 1372 -33 142 -117 255 -225 305 -47 22
-71 25 -207 30 l-154 5 0 66 0 66 177 -2 c98 -2 203 -8 233 -14z m-150 -1808
l0 -1499 -31 -11 c-18 -6 -61 -11 -95 -11 l-64 0 0 1510 0 1510 95 0 95 0 0
-1499z"/>
<path d="M4483 6638 c8 -56 12 -74 91 -403 103 -424 171 -717 236 -1005 23
-102 60 -255 81 -340 21 -85 52 -218 68 -295 17 -77 44 -198 61 -270 16 -71
41 -184 55 -250 33 -160 51 -223 58 -205 7 21 77 339 93 425 12 62 27 129 105
470 11 50 23 101 25 115 3 14 11 52 19 85 8 33 17 76 21 95 4 19 9 40 10 45 5
21 74 326 104 460 17 77 47 210 66 295 19 85 41 187 50 225 23 107 74 326 84
365 5 20 16 71 25 114 8 44 17 87 20 98 6 17 -1 18 -82 18 l-88 0 -53 -218
c-29 -119 -64 -271 -78 -337 -14 -66 -46 -208 -70 -315 -25 -107 -61 -267 -80
-355 -52 -243 -135 -615 -146 -658 -8 -35 -12 -38 -40 -35 -36 3 -32 -8 -123
383 -156 676 -218 944 -240 1033 -24 100 -84 366 -91 407 -2 11 -6 37 -9 58
l-6 37 -86 0 -86 0 6 -42z"/>
<path d="M7273 7256 l-183 -9 0 -2007 c0 -1104 3 -2034 6 -2067 l7 -61 166 5
c433 11 629 96 821 355 65 86 113 192 147 323 23 89 23 95 20 590 l-2 500 -27
73 c-51 139 -158 268 -283 344 -30 18 -55 36 -55 39 0 3 17 15 38 26 47 27
141 119 182 178 44 63 83 154 117 266 l28 94 0 365 0 365 -36 102 c-49 139
-88 202 -194 309 -102 104 -186 156 -307 191 -94 27 -198 31 -445 19z m300
-227 c112 -24 174 -57 259 -140 53 -52 77 -86 111 -155 l42 -89 3 -350 c3
-393 -2 -440 -65 -573 -45 -96 -135 -192 -217 -232 -49 -24 -83 -32 -173 -42
l-113 -11 0 -92 0 -92 114 -10 c178 -17 270 -68 366 -205 94 -134 91 -115 91
-651 0 -258 -3 -490 -6 -515 -17 -124 -72 -237 -161 -332 -76 -80 -134 -121
-213 -151 -69 -26 -236 -59 -296 -59 l-45 0 0 104 0 103 68 6 c93 9 224 52
275 91 58 44 101 112 116 182 9 43 11 196 9 574 -3 509 -3 515 -25 556 -29 55
-78 103 -128 125 -32 15 -66 19 -177 19 l-138 0 0 274 0 274 118 4 c102 4 124
8 176 33 75 36 130 92 153 158 16 47 18 91 18 437 l0 385 -27 51 c-15 28 -47
69 -71 90 -64 56 -122 74 -252 77 l-110 2 -3 88 -3 88 108 -2 c59 -1 148 -10
196 -20z"/>
<path d="M1630 2355 l0 -85 3450 0 3450 0 0 54 c0 29 3 68 6 85 l7 31 -3457 0
-3456 0 0 -85z"/>
<path d="M1634 2127 c-8 -21 0 -172 9 -169 4 1 1557 2 3452 2 l3446 0 -3 88
-3 87 -3448 3 c-2874 2 -3448 0 -3453 -11z"/>
</g>
</svg>
